<svg width="216" height="82" viewBox="0 0 216 82" fill="none" xmlns="http://www.w3.org/2000/svg">
<g filter="url(#filter0_i_208_387)">
<path d="M47.3778 9.74887C44.4445 10.8422 43.2889 11.8444 41.8667 14.9422C39.8222 19.1333 39.3778 24.2355 41.0667 24.7822C43.1111 25.5111 38.8445 30.0667 31.3778 35.1689C18.4889 43.8244 16.0889 47.8333 16 59.9511C16 67.1489 15.9111 67.4222 14.2222 66.5111C13.2445 65.9644 12 63.8689 11.4667 61.5911C10.4889 57.6733 8.8889 56.3067 6.4889 57.1267C4.71112 57.7644 5.15556 64.78 7.11112 68.06C9.42223 71.9778 13.1556 73.8 19.0222 73.8H23.9111L24.4445 70.3378C24.8 68.5155 25.2445 65.8733 25.4222 64.5067C25.6889 63.14 27.3778 60.68 29.2445 58.9489C32.2667 56.2155 32.4445 55.6689 31.3778 54.2111C30.1333 52.3889 29.6889 41.9111 30.9333 41.9111C31.3778 41.9111 32.4445 42.5489 33.4222 43.2778C35.5556 44.9178 39.1111 44.9178 41.2445 43.2778C42.2222 42.5489 43.2889 41.9111 43.7333 41.9111C44.9778 41.9111 44.5333 52.2978 43.2 54.3022C41.7778 56.3978 40.9778 70.7933 42.1333 72.7067C42.5778 73.4355 45.7778 73.8 52.0889 73.8H61.3333V71.0667C61.3333 68.9711 60.8889 68.3333 59.6445 68.3333C58.3111 68.3333 57.6889 66.7844 56.0889 58.3111C54.5778 50.4755 54.4 47.9244 55.1111 46.3755C55.7333 45.3733 56.4445 40.5444 56.8 35.8066C57.4222 26.3311 58.4 24.6 63.2889 24.6C65.2445 24.6 66.1333 23.8711 67.5556 20.9555C70.3111 15.4889 69.9556 13.94 65.7778 12.6644C63.8222 12.0266 61.6 10.8422 60.8 9.83998C58.9333 7.83553 52.9778 7.74442 47.3778 9.74887Z" fill="white"/>
</g>
<g filter="url(#filter1_i_208_387)">
<path d="M73.7598 38.46C77.9004 38.46 80.8154 39.2119 82.5049 40.7158C83.8721 41.9365 84.5654 43.6846 84.585 45.96C84.585 49.8174 82.4805 52.127 78.2715 52.8887C76.8848 53.1426 75.2344 53.2646 73.3203 53.2549H71.7676V62H67.2852V38.46H73.7598ZM80.0879 45.9453C80.0879 45.125 79.9414 44.3975 79.6484 43.7627C79.3652 43.1279 78.9307 42.6445 78.3447 42.3125C77.29 41.7168 75.752 41.4189 73.7305 41.4189H71.7676V50.4131H73.1885C75.8545 50.4229 77.7051 50.0273 78.7402 49.2266C79.6387 48.5234 80.0879 47.4297 80.0879 45.9453ZM96.142 59.4072C97.0795 59.4072 97.89 59.2803 98.5736 59.0264C99.2572 58.7725 99.9311 58.3916 100.595 57.8838L101.562 60.7695C99.7943 61.8242 97.8754 62.3516 95.8051 62.3516C93.1 62.3516 90.9955 61.585 89.4916 60.0518C87.9877 58.5186 87.2357 56.3945 87.2357 53.6797C87.2357 50.877 87.8998 48.6113 89.2279 46.8828C90.6049 45.0957 92.641 44.2021 95.3363 44.2021C97.6215 44.2021 99.3695 44.8955 100.58 46.2822C101.791 47.6689 102.397 49.5635 102.397 51.9658C102.397 52.708 102.382 53.4307 102.353 54.1338H91.6156C91.6352 55.8037 92.016 57.1025 92.7582 58.0303C93.5102 58.9482 94.6381 59.4072 96.142 59.4072ZM98.8373 51.6875C98.8373 48.6797 97.7045 47.1562 95.4389 47.1172C94.1986 47.1562 93.2611 47.6152 92.6264 48.4941C92.0014 49.3633 91.6596 50.4961 91.601 51.8926H98.8373V51.6875ZM117.25 60.9453C115.765 61.8828 114.125 62.3516 112.328 62.3516C110.111 62.3516 108.671 61.4141 108.007 59.5391C107.616 58.4648 107.426 57.0635 107.435 55.335V46.5605H104.462V44.6416H107.538L107.684 38.6064L111.698 37.5811V44.6416H116.605V46.5605H111.698V56.4775C111.698 57.4346 111.815 58.1621 112.05 58.6602C112.284 59.1582 112.743 59.4072 113.427 59.4072C113.925 59.4072 114.359 59.3096 114.73 59.1143C115.111 58.9092 115.341 58.7871 115.419 58.748C115.751 58.5723 115.985 58.4307 116.122 58.3232L117.25 60.9453ZM130.36 41.3311C126.981 41.3408 125.028 43.4258 124.5 47.5859C124.393 48.4453 124.339 49.3926 124.339 50.4277C124.339 56.2773 126.346 59.2021 130.36 59.2021C132.362 59.2021 134.134 58.6602 135.677 57.5762L136.907 60.7402C136.234 61.2969 135.257 61.7266 133.978 62.0293C132.708 62.3418 131.297 62.498 129.744 62.498C128.201 62.498 126.771 62.2051 125.452 61.6191C124.134 61.0332 123.07 60.1934 122.259 59.0996C120.648 56.9316 119.842 54.0117 119.842 50.3398C119.832 46.707 120.648 43.7773 122.288 41.5508C123.109 40.4375 124.178 39.5732 125.496 38.958C126.824 38.3428 128.255 38.0352 129.788 38.0352C132.952 38.0352 135.272 38.5479 136.746 39.5732L135.574 42.7812C134.09 41.8145 132.352 41.3311 130.36 41.3311ZM150.237 51.6143C150.237 49.6611 149.998 48.4209 149.519 47.8936C149.05 47.376 148.303 47.1172 147.278 47.1172C145.325 47.1172 143.479 47.625 141.741 48.6406L140.584 45.9746C142.576 44.793 144.841 44.2021 147.38 44.2021C150.037 44.2119 151.902 44.8809 152.976 46.209C153.992 47.4785 154.5 49.4902 154.5 52.2441V62H151.218L150.632 59.5977C150.027 60.5156 149.324 61.2041 148.523 61.6631C147.732 62.1221 146.716 62.3516 145.476 62.3516C143.582 62.3516 142.107 61.873 141.052 60.916C140.007 59.959 139.485 58.5625 139.485 56.7266C139.495 54.1094 140.808 52.4102 143.425 51.6289C144.187 51.3945 145.037 51.2627 145.974 51.2334C147.498 51.2334 148.919 51.3604 150.237 51.6143ZM150.237 53.7822L149.226 53.6797L148.582 53.6211C148.289 53.6016 147.986 53.5918 147.673 53.5918C147.371 53.5918 147.024 53.6113 146.633 53.6504C146.243 53.6895 145.857 53.7725 145.476 53.8994C145.105 54.0166 144.802 54.1777 144.568 54.3828C144.041 54.832 143.777 55.5059 143.777 56.4043C143.777 58.4062 144.71 59.4072 146.575 59.4072C147.346 59.4072 148.015 59.251 148.582 58.9385C149.158 58.6162 149.71 58.1719 150.237 57.6055V53.7822ZM167.434 47.9961C166.213 47.9961 164.934 48.5625 163.596 49.6953V62H159.318V44.6416H162.878L163.405 47.4395C163.952 46.5312 164.582 45.8281 165.295 45.3301C166.008 44.8223 166.916 44.5684 168.02 44.5684C168.244 44.5684 168.591 44.5781 169.06 44.5977V48.1719C168.786 48.0547 168.244 47.9961 167.434 47.9961ZM180.294 59.4072C181.232 59.4072 182.042 59.2803 182.726 59.0264C183.41 58.7725 184.083 58.3916 184.747 57.8838L185.714 60.7695C183.947 61.8242 182.028 62.3516 179.957 62.3516C177.252 62.3516 175.148 61.585 173.644 60.0518C172.14 58.5186 171.388 56.3945 171.388 53.6797C171.388 50.877 172.052 48.6113 173.38 46.8828C174.757 45.0957 176.793 44.2021 179.489 44.2021C181.774 44.2021 183.522 44.8955 184.733 46.2822C185.944 47.6689 186.549 49.5635 186.549 51.9658C186.549 52.708 186.535 53.4307 186.505 54.1338H175.768C175.787 55.8037 176.168 57.1025 176.911 58.0303C177.662 58.9482 178.79 59.4072 180.294 59.4072ZM182.99 51.6875C182.99 48.6797 181.857 47.1562 179.591 47.1172C178.351 47.1562 177.413 47.6152 176.779 48.4941C176.154 49.3633 175.812 50.4961 175.753 51.8926H182.99V51.6875Z" fill="white"/>
</g>
<defs>
<filter id="filter0_i_208_387" x="0" y="0" width="80" height="86" filterUnits="userSpaceOnUse" color-interpolation-filters="sRGB">
<feFlood flood-opacity="0" result="BackgroundImageFix"/>
<feBlend mode="normal" in="SourceGraphic" in2="BackgroundImageFix" result="shape"/>
<feColorMatrix in="SourceAlpha" type="matrix" values="0 0 0 0 0 0 0 0 0 0 0 0 0 0 0 0 0 0 127 0" result="hardAlpha"/>
<feOffset dy="4"/>
<feGaussianBlur stdDeviation="2"/>
<feComposite in2="hardAlpha" operator="arithmetic" k2="-1" k3="1"/>
<feColorMatrix type="matrix" values="0 0 0 0 0 0 0 0 0 0 0 0 0 0 0 0 0 0 0.25 0"/>
<feBlend mode="normal" in2="shape" result="effect1_innerShadow_208_387"/>
</filter>
<filter id="filter1_i_208_387" x="67.2852" y="37.5811" width="119.264" height="28.917" filterUnits="userSpaceOnUse" color-interpolation-filters="sRGB">
<feFlood flood-opacity="0" result="BackgroundImageFix"/>
<feBlend mode="normal" in="SourceGraphic" in2="BackgroundImageFix" result="shape"/>
<feColorMatrix in="SourceAlpha" type="matrix" values="0 0 0 0 0 0 0 0 0 0 0 0 0 0 0 0 0 0 127 0" result="hardAlpha"/>
<feOffset dy="4"/>
<feGaussianBlur stdDeviation="2"/>
<feComposite in2="hardAlpha" operator="arithmetic" k2="-1" k3="1"/>
<feColorMatrix type="matrix" values="0 0 0 0 0 0 0 0 0 0 0 0 0 0 0 0 0 0 0.25 0"/>
<feBlend mode="normal" in2="shape" result="effect1_innerShadow_208_387"/>
</filter>
</defs>
</svg>
